<svg xmlns="http://www.w3.org/2000/svg" width="250" height="250" fill="none" viewBox="0 0 250 250">
<!-- SVG created with Arrow, by QuiverAI (https://quiver.ai) -->
  <path d="m243.8 118.2c-2.61-13.05-12.67-18.18-18.85-18.18-11.29 0-13.6 10.1-13.84 10.79 3.65-3.64 6.1-3.98 8.21-3.98 6.13 0 10.43 4.36 10.43 10.67 0 7.62-5.23 11.32-12.04 11.13-12.5-0.37-22.76-10.72-30.74-18.01-11.21-10.27-20.85-18.19-37.58-18.19-12.42 0-20.44 5.53-24.57 11.57-4.13-6.04-12.15-11.57-24.57-11.57-16.73 0-26.37 7.92-37.58 18.19-7.98 7.29-18.24 17.64-30.74 18.01-6.81 0.19-12.04-3.51-12.04-11.13 0-6.31 4.3-10.67 10.43-10.67 2.11 0 4.56 0.34 8.91 3.98-0.24-0.69-2.55-10.79-13.84-10.79-6.18 0-16.49 5.46-19.11 18.18-3.45 15.9 5.68 39.1 43.75 39.39 33.16 0.27 57.87-10.69 74.46-29.05 12.48 17.55 35.46 29.05 69.51 29.05h0.05c32.71 0 54.31-17.09 49.75-39.39z" fill="url(#paint0_linear_125_1272)"/>
  <defs>
    <linearGradient id="paint0_linear_125_1272" x1="125" x2="125" y1="92.42" y2="157.6" gradientUnits="userSpaceOnUse">
      <stop stop-color="#603A1F" offset="0"/>
      <stop stop-color="#2D180F" offset="1"/>
    </linearGradient>
  </defs>
</svg>