<svg xmlns="http://www.w3.org/2000/svg" width="156" height="105" viewBox="0 0 156 105">
<path d="M 64.18 52.93 C45.94,58.23 24.59,55.10 13.10,45.43 C3.97,37.75 3.07,22.12 11.44,16.63 C12.84,15.71 16.13,14.72 18.74,14.41 L 23.50 13.86 L 19.33 15.85 C14.24,18.27 11.78,21.80 11.64,26.85 C11.53,31.10 13.75,35.13 17.58,37.64 C21.13,39.97 26.98,38.49 43.57,31.04 C60.28,23.55 62.04,23.22 70.46,26.06 C77.50,28.44 77.85,28.42 89.64,24.88 C94.52,23.43 98.30,24.54 116.50,32.81 C122.55,35.56 129.58,38.12 132.13,38.50 C136.31,39.12 137.07,38.91 139.98,36.31 C142.45,34.10 143.32,32.38 143.71,28.88 C144.41,22.67 142.09,18.40 136.68,15.94 L 132.50 14.04 L 135.85 14.02 C148.22,13.94 154.08,27.35 147.04,39.62 C141.12,49.95 128.75,55.14 110.00,55.16 C97.13,55.17 88.17,53.05 82.05,48.53 C77.81,45.41 77.49,45.41 73.83,48.49 C72.20,49.86 67.86,51.86 64.18,52.93 ZM 83.90 90.72 C82.03,92.81 79.81,95.58 78.96,96.88 L 77.43 99.24 L 76.29 96.74 C73.78,91.22 68.58,86.87 58.11,81.51 C46.81,75.73 39.71,69.80 37.31,64.14 C36.52,62.29 36.03,60.63 36.22,60.45 C36.40,60.26 38.57,60.60 41.03,61.19 C45.23,62.20 68.27,62.86 76.00,62.20 C77.93,62.03 84.30,62.20 90.17,62.58 C99.81,63.19 114.11,62.05 118.67,60.30 C119.92,59.82 119.90,60.31 118.52,63.62 C115.85,70.03 109.41,75.62 97.90,81.51 C91.29,84.89 86.01,88.36 83.90,90.72 Z" fill="#e2e8f0"/>
</svg>
